<svg width="16" height="17" viewBox="0 0 16 17" fill="none" xmlns="http://www.w3.org/2000/svg">
<mask id="mask0_357_1079" style="mask-type:alpha" maskUnits="userSpaceOnUse" x="0" y="0" width="16" height="17">
<rect y="0.5" width="16" height="16" fill="#D9D9D9"/>
</mask>
<g mask="url(#mask0_357_1079)">
<path d="M9.89131 8.49996L4.86951 3.47816C4.73703 3.34569 4.6725 3.188 4.67591 3.0051C4.67933 2.82219 4.74728 2.6645 4.87976 2.53203C5.01224 2.39955 5.16993 2.33331 5.35283 2.33331C5.53573 2.33331 5.69342 2.39955 5.82589 2.53203L10.9297 7.64613C11.0503 7.76664 11.1396 7.90168 11.1977 8.05125C11.2558 8.20082 11.2849 8.3504 11.2849 8.49996C11.2849 8.64953 11.2558 8.7991 11.1977 8.94868C11.1396 9.09825 11.0503 9.23329 10.9297 9.3538L5.81564 14.4679C5.68316 14.6004 5.52718 14.6649 5.34769 14.6615C5.16821 14.6581 5.01224 14.5901 4.87976 14.4576C4.74728 14.3252 4.68104 14.1675 4.68104 13.9846C4.68104 13.8017 4.74728 13.644 4.87976 13.5115L9.89131 8.49996Z" fill="#D3D3D3"/>
</g>
</svg>
