<svg width="24" height="25" viewBox="0 0 24 25" fill="none" xmlns="http://www.w3.org/2000/svg">
<mask id="mask0_319_174" style="mask-type:alpha" maskUnits="userSpaceOnUse" x="0" y="0" width="24" height="25">
<rect y="0.5" width="24" height="24" fill="#D9D9D9"/>
</mask>
<g mask="url(#mask0_319_174)">
<path d="M14.4746 12.5L7.12462 5.15C6.87462 4.9 6.75379 4.60417 6.76212 4.2625C6.77046 3.92083 6.89962 3.625 7.14962 3.375C7.39962 3.125 7.69546 3 8.03712 3C8.37879 3 8.67462 3.125 8.92462 3.375L16.5996 11.075C16.7996 11.275 16.9496 11.5 17.0496 11.75C17.1496 12 17.1996 12.25 17.1996 12.5C17.1996 12.75 17.1496 13 17.0496 13.25C16.9496 13.5 16.7996 13.725 16.5996 13.925L8.89962 21.625C8.64962 21.875 8.35795 21.9958 8.02462 21.9875C7.69129 21.9792 7.39962 21.85 7.14962 21.6C6.89962 21.35 6.77462 21.0542 6.77462 20.7125C6.77462 20.3708 6.89962 20.075 7.14962 19.825L14.4746 12.5Z" fill="#202020"/>
</g>
</svg>
