<svg width="105" height="28" viewBox="0 0 105 28" fill="none" xmlns="http://www.w3.org/2000/svg">
<path d="M22.9032 6.63736L12.2606 12.4196V15.8409L21.6829 10.7267V19.3619L12.2364 24.1548L3.12175 19.3721L3.03878 9.07607L12.2139 3.83843L17.7694 6.99928L20.485 5.32499L12.2364 0.5L0 7.27664L0.110627 21.1512L12.1119 27.4476L12.2122 27.5L24.5903 21.2206L24.7078 21.1614V7.56245L22.9032 6.63736Z" fill="#4098FF"/>
<path d="M12.2216 9.72719V6.27545L5.53731 10.2684L5.43359 10.3309V18.2441L12.2302 21.7702L17.4815 19.1827V15.8865L12.2354 18.4893L8.45855 16.4818V12.0035L12.2216 9.72719Z" fill="#4098FF"/>
<path d="M34.7891 25.4216L41.7589 2.53923H46.78L53.7339 25.4216H49.5551L47.9953 20.3728H40.5115L38.9838 25.4216H34.7891ZM41.6652 16.4371H46.8416L44.2538 7.93984L41.6652 16.4371Z" fill="white"/>
<path d="M56.1641 2.53923H60.1866V25.4216H56.1641V2.53923Z" fill="white"/>
<path d="M63.6484 21.1969H67.9673V25.4215H63.6484V21.1969Z" fill="white"/>
<path d="M71.25 5.81923L74.302 2.53923H83.5102L86.5605 5.81923V9.96789H82.8991V7.80277L81.6652 6.45995H76.1605L74.9248 7.80277V20.1598L76.1452 21.486H81.665L82.899 20.1598V17.0168H80.0327V13.0812H86.5603V22.1416L83.5102 25.4216H74.302L71.25 22.1416V5.81923Z" fill="white"/>
<path d="M89.6875 5.81923L92.7378 2.53923H101.948L104.998 5.81923V22.1416L101.948 25.4216H92.7378L89.6875 22.1416V5.81923ZM93.3488 20.1598L94.5828 21.486H100.103L101.337 20.1598V7.80277L100.103 6.4749H94.5828L93.3488 7.80277V20.1598Z" fill="white"/>
</svg>
